<mxfile host="app.diagrams.net" modified="2020-09-17T03:20:13.989Z" agent="5.0 (Macintosh; Intel Mac OS X 10_15_6) AppleWebKit/537.36 (KHTML, like Gecko) Chrome/85.0.4183.102 Safari/537.36" etag="nTF1pU4YlcPtDphqiaDF" version="13.6.5" type="github">
  <diagram name="Page-1" id="822b0af5-4adb-64df-f703-e8dfc1f81529">
    <mxGraphModel dx="1298" dy="763" grid="1" gridSize="10" guides="1" tooltips="1" connect="1" arrows="1" fold="1" page="1" pageScale="1" pageWidth="1100" pageHeight="850" background="#ffffff" math="0" shadow="0">
      <root>
        <mxCell id="0" />
        <mxCell id="1" parent="0" />
        <mxCell id="iq4qOIdG8pDea5pl_avG-24" value="操作员" style="verticalLabelPosition=bottom;aspect=fixed;html=1;verticalAlign=top;strokeColor=none;align=center;outlineConnect=0;shape=mxgraph.citrix.laptop_2;" vertex="1" parent="1">
          <mxGeometry x="890" y="390" width="116" height="86.5" as="geometry" />
        </mxCell>
        <mxCell id="iq4qOIdG8pDea5pl_avG-1" value="服务器master主+Web应用服务器" style="verticalLabelPosition=bottom;aspect=fixed;html=1;verticalAlign=top;strokeColor=none;align=center;outlineConnect=0;shape=mxgraph.citrix.database_server;" vertex="1" parent="1">
          <mxGeometry x="690" y="270" width="80" height="90" as="geometry" />
        </mxCell>
        <mxCell id="iq4qOIdG8pDea5pl_avG-2" value="数据库服务器worker01" style="verticalLabelPosition=bottom;aspect=fixed;html=1;verticalAlign=top;strokeColor=none;align=center;outlineConnect=0;shape=mxgraph.citrix.database_server;" vertex="1" parent="1">
          <mxGeometry x="230" y="180" width="80" height="90" as="geometry" />
        </mxCell>
        <mxCell id="iq4qOIdG8pDea5pl_avG-16" style="edgeStyle=orthogonalEdgeStyle;rounded=0;orthogonalLoop=1;jettySize=auto;html=1;" edge="1" parent="1" source="iq4qOIdG8pDea5pl_avG-3" target="iq4qOIdG8pDea5pl_avG-13">
          <mxGeometry relative="1" as="geometry" />
        </mxCell>
        <mxCell id="iq4qOIdG8pDea5pl_avG-3" value="数据库服务器worker02" style="verticalLabelPosition=bottom;aspect=fixed;html=1;verticalAlign=top;strokeColor=none;align=center;outlineConnect=0;shape=mxgraph.citrix.database_server;" vertex="1" parent="1">
          <mxGeometry x="398.69" y="90" width="80" height="90" as="geometry" />
        </mxCell>
        <mxCell id="iq4qOIdG8pDea5pl_avG-4" value="数据库服务器worker03" style="verticalLabelPosition=bottom;aspect=fixed;html=1;verticalAlign=top;strokeColor=none;align=center;outlineConnect=0;shape=mxgraph.citrix.database_server;" vertex="1" parent="1">
          <mxGeometry x="560" y="180" width="80" height="90" as="geometry" />
        </mxCell>
        <mxCell id="iq4qOIdG8pDea5pl_avG-5" value="数据库服务器master备" style="verticalLabelPosition=bottom;aspect=fixed;html=1;verticalAlign=top;strokeColor=none;align=center;outlineConnect=0;shape=mxgraph.citrix.database_server;" vertex="1" parent="1">
          <mxGeometry x="100" y="270" width="80" height="90" as="geometry" />
        </mxCell>
        <mxCell id="iq4qOIdG8pDea5pl_avG-13" value="内网交换机" style="verticalLabelPosition=bottom;aspect=fixed;html=1;verticalAlign=top;strokeColor=none;align=center;outlineConnect=0;shape=mxgraph.citrix.1u_2u_server;" vertex="1" parent="1">
          <mxGeometry x="330" y="490" width="217.39" height="85" as="geometry" />
        </mxCell>
        <mxCell id="iq4qOIdG8pDea5pl_avG-21" style="edgeStyle=orthogonalEdgeStyle;rounded=0;orthogonalLoop=1;jettySize=auto;html=1;" edge="1" parent="1" source="iq4qOIdG8pDea5pl_avG-20" target="iq4qOIdG8pDea5pl_avG-13">
          <mxGeometry relative="1" as="geometry" />
        </mxCell>
        <mxCell id="iq4qOIdG8pDea5pl_avG-20" value="银行内网" style="verticalLabelPosition=bottom;aspect=fixed;html=1;verticalAlign=top;strokeColor=none;align=center;outlineConnect=0;shape=mxgraph.citrix.cloud;" vertex="1" parent="1">
          <mxGeometry x="306.71000000000004" y="650" width="263.96" height="172.26" as="geometry" />
        </mxCell>
        <mxCell id="iq4qOIdG8pDea5pl_avG-28" style="edgeStyle=orthogonalEdgeStyle;rounded=0;orthogonalLoop=1;jettySize=auto;html=1;" edge="1" parent="1" source="iq4qOIdG8pDea5pl_avG-23" target="iq4qOIdG8pDea5pl_avG-27">
          <mxGeometry relative="1" as="geometry" />
        </mxCell>
        <mxCell id="iq4qOIdG8pDea5pl_avG-23" value="" style="verticalLabelPosition=bottom;aspect=fixed;html=1;verticalAlign=top;strokeColor=none;align=center;outlineConnect=0;shape=mxgraph.citrix.users;" vertex="1" parent="1">
          <mxGeometry x="890" y="405.75" width="64.5" height="55" as="geometry" />
        </mxCell>
        <mxCell id="iq4qOIdG8pDea5pl_avG-25" value="操作员" style="verticalLabelPosition=bottom;aspect=fixed;html=1;verticalAlign=top;strokeColor=none;align=center;outlineConnect=0;shape=mxgraph.citrix.laptop_2;" vertex="1" parent="1">
          <mxGeometry x="900" y="563.5" width="116" height="86.5" as="geometry" />
        </mxCell>
        <mxCell id="iq4qOIdG8pDea5pl_avG-29" style="edgeStyle=orthogonalEdgeStyle;rounded=0;orthogonalLoop=1;jettySize=auto;html=1;" edge="1" parent="1" source="iq4qOIdG8pDea5pl_avG-26" target="iq4qOIdG8pDea5pl_avG-27">
          <mxGeometry relative="1" as="geometry" />
        </mxCell>
        <mxCell id="iq4qOIdG8pDea5pl_avG-26" value="" style="verticalLabelPosition=bottom;aspect=fixed;html=1;verticalAlign=top;strokeColor=none;align=center;outlineConnect=0;shape=mxgraph.citrix.users;" vertex="1" parent="1">
          <mxGeometry x="890" y="610" width="64.5" height="55" as="geometry" />
        </mxCell>
        <mxCell id="iq4qOIdG8pDea5pl_avG-30" style="edgeStyle=orthogonalEdgeStyle;rounded=0;orthogonalLoop=1;jettySize=auto;html=1;" edge="1" parent="1" source="iq4qOIdG8pDea5pl_avG-27" target="iq4qOIdG8pDea5pl_avG-13">
          <mxGeometry relative="1" as="geometry" />
        </mxCell>
        <mxCell id="iq4qOIdG8pDea5pl_avG-27" value="路由" style="verticalLabelPosition=bottom;aspect=fixed;html=1;verticalAlign=top;strokeColor=none;align=center;outlineConnect=0;shape=mxgraph.citrix.netscaler_gateway;" vertex="1" parent="1">
          <mxGeometry x="650" y="513" width="100" height="39" as="geometry" />
        </mxCell>
        <mxCell id="iq4qOIdG8pDea5pl_avG-32" value="" style="endArrow=classic;html=1;" edge="1" parent="1" source="iq4qOIdG8pDea5pl_avG-5" target="iq4qOIdG8pDea5pl_avG-13">
          <mxGeometry width="50" height="50" relative="1" as="geometry">
            <mxPoint x="500" y="500" as="sourcePoint" />
            <mxPoint x="550" y="450" as="targetPoint" />
          </mxGeometry>
        </mxCell>
        <mxCell id="iq4qOIdG8pDea5pl_avG-33" value="" style="endArrow=classic;html=1;" edge="1" parent="1" source="iq4qOIdG8pDea5pl_avG-2" target="iq4qOIdG8pDea5pl_avG-13">
          <mxGeometry width="50" height="50" relative="1" as="geometry">
            <mxPoint x="500" y="500" as="sourcePoint" />
            <mxPoint x="550" y="450" as="targetPoint" />
          </mxGeometry>
        </mxCell>
        <mxCell id="iq4qOIdG8pDea5pl_avG-34" value="" style="endArrow=classic;html=1;" edge="1" parent="1" source="iq4qOIdG8pDea5pl_avG-4" target="iq4qOIdG8pDea5pl_avG-13">
          <mxGeometry width="50" height="50" relative="1" as="geometry">
            <mxPoint x="304.68707317073176" y="280" as="sourcePoint" />
            <mxPoint x="425.3794308943088" y="500" as="targetPoint" />
          </mxGeometry>
        </mxCell>
        <mxCell id="iq4qOIdG8pDea5pl_avG-35" value="" style="endArrow=classic;html=1;" edge="1" parent="1" source="iq4qOIdG8pDea5pl_avG-1">
          <mxGeometry width="50" height="50" relative="1" as="geometry">
            <mxPoint x="586.3943902439025" y="280" as="sourcePoint" />
            <mxPoint x="470.98918699186993" y="500" as="targetPoint" />
          </mxGeometry>
        </mxCell>
      </root>
    </mxGraphModel>
  </diagram>
</mxfile>
